<?xml version="1.0" encoding="UTF-8"?>
<svg width="161px" height="193px" viewBox="0 0 161 193" version="1.1" xmlns="http://www.w3.org/2000/svg" xmlns:xlink="http://www.w3.org/1999/xlink">
    <!-- Generator: Sketch 48.2 (47327) - http://www.bohemiancoding.com/sketch -->
    <title>Group 3</title>
    <desc>Created with Sketch.</desc>
    <defs>
        <text id="text-1" font-family="AmaticSC-Regular, Amatic SC" font-size="68" font-weight="normal" fill="#FFFFFF">
            <tspan x="0" y="189">MakTrak</tspan>
        </text>
        <filter x="-4.3%" y="-7.0%" width="108.6%" height="119.7%" filterUnits="objectBoundingBox" id="filter-2">
            <feOffset dx="0" dy="2" in="SourceAlpha" result="shadowOffsetOuter1"></feOffset>
            <feGaussianBlur stdDeviation="2" in="shadowOffsetOuter1" result="shadowBlurOuter1"></feGaussianBlur>
            <feColorMatrix values="0 0 0 0 0   0 0 0 0 0   0 0 0 0 0  0 0 0 0.5 0" type="matrix" in="shadowBlurOuter1"></feColorMatrix>
        </filter>
        <filter x="-5.7%" y="-4.2%" width="111.4%" height="111.7%" filterUnits="objectBoundingBox" id="filter-3">
            <feOffset dx="0" dy="2" in="SourceAlpha" result="shadowOffsetOuter1"></feOffset>
            <feGaussianBlur stdDeviation="2" in="shadowOffsetOuter1" result="shadowBlurOuter1"></feGaussianBlur>
            <feColorMatrix values="0 0 0 0 0   0 0 0 0 0   0 0 0 0 0  0 0 0 0.5 0" type="matrix" in="shadowBlurOuter1" result="shadowMatrixOuter1"></feColorMatrix>
            <feMerge>
                <feMergeNode in="shadowMatrixOuter1"></feMergeNode>
                <feMergeNode in="SourceGraphic"></feMergeNode>
            </feMerge>
        </filter>
    </defs>
    <g id="Page-1" stroke="none" stroke-width="1" fill="none" fill-rule="evenodd">
        <g id="Main-logos" transform="translate(-3926.000000, -4048.000000)" fill="#FFFFFF">
            <g id="hero" transform="translate(3925.000000, 4050.000000)">
                <g id="Group-3">
                    <g id="MakTrak" fill-opacity="1">
                        <use filter="url(#filter-2)" xlink:href="#text-1"></use>
                        <use xlink:href="#text-1"></use>
                    </g>
                    <g id="crossed-knife-and-fork" filter="url(#filter-3)" style="mix-blend-mode: color;" transform="translate(20.000000, 0.000000)" fill-rule="nonzero">
                        <path d="M10.1800249,0.564528718 C9.13443359,1.58320235 8.50763352,3.07008198 10.6965802,11.979706 C12.0077295,17.3171171 22.2424593,47.076646 25.7300748,55.6263752 C32.8266441,73.0206046 37.3688645,72.4468295 39.9710555,72.7779327 C41.2419897,72.939714 42.4782558,72.644943 43.546728,71.9230969 C46.4567721,69.9597851 47.4274802,69.387381 48.5514215,68.7238035 C48.945945,68.4914143 49.3668163,68.2425728 49.8937721,67.9224378 C53.0395596,73.0185481 56.9230852,80.9245797 60.6935927,88.5995932 C65.7669291,98.928231 71.0136062,109.609223 75.2056784,115.135836 C77.8716587,118.649094 80.7546617,119.682849 82.7043982,119.93032 C86.4360774,120.404696 90.2953353,118.427673 92.5383643,114.893164 C94.813288,111.306555 94.8902513,107.052942 92.7380528,103.794694 C88.3081572,97.0835131 23.4600046,12.6693329 13.7390567,1.08277722 C12.3897724,-0.526809392 10.7818639,-0.0222711703 10.1800249,0.564528718 Z M88.5737152,112.43354 C87.2986208,114.444152 85.2289325,115.584847 83.3013837,115.339433 C81.7884658,115.14749 80.2831749,114.115791 78.9505314,112.358134 C75.0274841,107.187302 69.8813446,96.709908 64.9036923,86.5773272 C60.3566183,77.3208332 56.0619285,68.5771036 52.5486586,63.4412335 C52.1569086,62.8688294 51.5516028,62.5247015 50.908162,62.4424398 C50.3791261,62.3752594 49.8237424,62.4856272 49.3411618,62.7941084 C47.7700015,63.7970152 43.936398,66.0571545 40.9077888,68.1006714 C40.7691162,68.1945868 40.6879928,68.2034985 40.568041,68.1891027 C38.9629058,69.0103484 38.8609815,67.8045294 36.1520126,64.1692493 C31.7886798,58.3135896 19.467621,23.9186158 15.9037356,12.621347 C14.52117,8.24022772 15.9938728,10.6559787 17.0769057,12.0338616 C28.7850317,26.9259653 84.5154621,99.8050032 88.8191657,106.324926 C90.1843972,108.391065 89.5874118,110.835607 88.5737152,112.43354 Z" id="Shape"></path>
                        <path d="M122.341932,23.8356684 C121.444239,22.9093595 119.967434,22.8872056 119.044172,23.7865145 C113.090651,29.5728301 107.537948,35.2151454 103.076435,39.7490746 C101.93687,40.9079993 100.892671,41.9686161 99.947295,42.9246943 L95.5486693,38.5146884 L114.136232,20.4468177 C115.060876,19.5482011 115.082299,18.0680452 114.185297,17.1424286 C113.288296,16.2168119 111.812182,16.1939658 110.887537,17.0932747 L92.2502184,35.2089146 L88.1093597,31.0571398 L106.808184,12.881269 C107.732828,11.9819601 107.754942,10.5024965 106.85794,9.57757217 C105.960938,8.65126322 104.483443,8.62910935 103.56018,9.52772595 L84.8122909,27.7513661 L80.7785473,23.706899 L101.039177,4.01279539 C101.963821,3.11417879 101.985935,1.63471524 101.088243,0.709790912 C100.191241,-0.217210345 98.715127,-0.238671913 97.7911737,0.659944691 L74.4753478,23.3240524 C68.5162984,29.1159064 68.9765474,37.6223025 75.4690985,45.4668516 L62.2082614,58.5514848 C61.2836171,59.4501014 61.261503,60.9295649 62.1585048,61.8544892 C62.5192405,62.2269513 62.974652,62.4533362 63.4487222,62.5322594 C64.1542991,62.6499519 64.9041041,62.441567 65.4569557,61.9043355 L78.7274678,48.81001 C81.3403827,50.9893976 84.4294411,52.4314765 87.6746801,52.9714772 C88.0920831,53.0420927 88.5143235,53.0960927 88.936564,53.134862 C93.1720984,53.529478 97.0531168,52.342861 99.5872504,49.8796268 C101.205724,48.3073939 103.496602,45.9784677 106.398382,43.0299252 C110.844,38.5133037 116.375972,32.8910653 122.292866,27.1407498 C123.216129,26.2414409 123.238243,24.7619774 122.341932,23.8356684 Z M89.3670972,48.4811634 C86.0935245,48.1765476 82.9471077,46.623007 80.5131785,44.1099267 C75.7448333,39.1862277 72.4982122,32.1475259 77.4386324,26.9697496 L96.6446977,46.2263142 C96.5396558,46.3287759 96.4373783,46.4291606 96.337865,46.5260838 C94.805775,48.0138551 92.2004617,48.7456253 89.3670972,48.4811634 Z" id="Shape"></path>
                        <path d="M51.4927999,79.1589627 C50.5304294,78.2986788 49.0578782,78.3861653 48.2032048,79.3540714 C38.8273409,89.964239 21.8132649,108.707179 16.0721792,113.82861 C13.2182052,116.374745 8.72254021,115.34782 6.31523313,112.789882 C3.79746746,110.115295 4.17716889,106.728318 7.35699579,103.494095 C15.430829,95.2877227 27.3244586,85.8905623 36.2957679,79.0867516 C37.3230328,78.3077052 37.5280716,76.8384876 36.7534807,75.8046194 C35.9788897,74.7707512 34.5180748,74.5652274 33.4901195,75.3442738 C24.403519,82.2362654 12.3310846,91.7743762 4.04461857,100.197381 C-1.9905631,106.33324 -0.326780464,112.55103 2.93174819,116.011607 C4.77295495,117.966166 7.38046824,119.372893 10.1502176,119.835322 C13.2320125,120.349826 16.514704,119.697149 19.1643296,117.33293 C25.7987492,111.415094 44.8908275,90.1558761 51.6867928,82.4647023 C52.5414662,81.4995735 52.4544801,80.0171635 51.4927999,79.1589627 Z" id="Shape"></path>
                    </g>
                </g>
            </g>
        </g>
    </g>
</svg>