<?xml version="1.0" encoding="UTF-8"?>
<svg width="253px" height="84px" viewBox="0 0 253 84" version="1.1" xmlns="http://www.w3.org/2000/svg" xmlns:xlink="http://www.w3.org/1999/xlink">
    <!-- Generator: Sketch 48.2 (47327) - http://www.bohemiancoding.com/sketch -->
    <title>nav</title>
    <desc>Created with Sketch.</desc>
    <defs></defs>
    <g id="Page-1" stroke="none" stroke-width="1" fill="none" fill-rule="evenodd">
        <g id="Main-logos" transform="translate(-453.000000, -67.000000)" fill="#000000">
            <g id="nav" transform="translate(453.000000, 67.000000)">
                <text id="MakTrak" font-family="AmaticSC-Regular, Amatic SC" font-size="64" font-weight="normal">
                    <tspan x="104" y="69">MakTrak</tspan>
                </text>
                <g id="crossed-knife-and-fork" fill-rule="nonzero">
                    <path d="M6.66231521,0.395170102 C5.93719167,1.10824165 5.50250224,2.14905738 7.02054931,8.38579418 C7.92983884,12.121982 15.0276826,32.9536522 17.4463639,38.9384626 C22.3678754,51.1144232 25.5179313,50.7127806 27.3225657,50.9445529 C28.2039658,51.0577998 29.0613234,50.8514601 29.8023151,50.3461678 C31.8204473,48.9718496 32.4936389,48.5711667 33.2730986,48.1066625 C33.546703,47.94399 33.8385796,47.769801 34.2040265,47.5457065 C36.3856481,51.1129836 39.0788954,56.6472058 41.693764,62.0197152 C45.2121518,69.2497617 48.8507525,76.726456 51.7579785,80.5950851 C53.6068512,83.0543661 55.6062303,83.7779946 56.9583837,83.951224 C59.5463246,84.2832869 62.2227421,82.8993714 63.7782955,80.4252147 C65.3559682,77.9145887 65.4093426,74.9370591 63.9167807,72.6562858 C60.8446227,67.9584592 15.8720573,8.86853306 9.13052416,0.757944052 C8.19478782,-0.368766574 7.07969401,-0.0155898192 6.66231521,0.395170102 Z M61.0287887,78.703478 C60.1445034,80.1109066 58.7091627,80.9093932 57.3723965,80.7376034 C56.3231793,80.6032427 55.2792515,79.8810538 54.3550556,78.6506935 C51.6343998,75.0311116 48.0655225,67.6969356 44.6134921,60.6041291 C41.4600703,54.1245833 38.4816783,48.0039725 36.0452055,44.4088635 C35.7735246,44.0081806 35.3537416,43.767291 34.9075117,43.7097079 C34.5406223,43.6626816 34.1554605,43.739939 33.8207881,43.9558759 C32.7311794,44.6579107 30.0725534,46.2400082 27.9721956,47.67047 C27.8760254,47.7362108 27.8197658,47.742449 27.7365785,47.7323719 C26.6234081,48.3072438 26.552723,47.4631706 24.6740375,44.9184745 C21.6480413,40.8195128 13.1033163,16.7430311 10.6317414,8.83494288 C9.67292425,5.7681594 10.6942521,7.45918506 11.4453416,8.4237031 C19.5649941,18.8481757 58.2143669,69.8635023 61.19901,74.4274481 C62.1458059,75.8737453 61.7317931,77.584925 61.0287887,78.703478 Z" id="Shape"></path>
                    <path d="M85.5398874,16.7631176 C84.9122322,16.1116643 83.8796695,16.0960839 83.2341365,16.7285487 C79.0715122,20.7979411 75.1891342,24.7660613 72.0697026,27.9546771 C71.2729333,28.7697241 70.5428433,29.5156333 69.8818485,30.1880227 L66.8063867,27.0865595 L79.8025686,14.3798111 C80.4490679,13.7478332 80.4640465,12.7068712 79.8368746,12.0559047 C79.2097026,11.4049382 78.177623,11.388871 77.5311238,12.0213358 L64.5001527,24.7616793 L61.6049182,21.8418245 L74.6788926,9.05912194 C75.3253919,8.42665715 75.3408537,7.38618197 74.7136818,6.7357024 C74.0865098,6.08424905 73.0534639,6.06866871 72.407931,6.70064661 L59.2996505,19.5169443 L56.4793095,16.6725569 L70.6452782,2.82211348 C71.2917775,2.19013557 71.3072393,1.14966039 70.6795842,0.499180822 C70.0524123,-0.152759407 69.0203327,-0.16785287 68.3743166,0.464125037 L52.0721944,16.403309 C47.9057046,20.4765964 48.2275047,26.4589636 52.767012,31.9758678 L43.4952072,41.1780114 C42.8487079,41.8099893 42.833246,42.8504645 43.460418,43.5009441 C43.7126397,43.7628887 44.0310575,43.9221004 44.3625212,43.9776054 C44.8558514,44.060376 45.3801053,43.9138233 45.766652,43.5359999 L55.0452214,34.3270398 C56.8721375,35.8597567 59.031967,36.87394 61.3009959,37.253711 C61.5928386,37.3033734 61.8880636,37.3413505 62.1832886,37.3686161 C65.1447192,37.6461411 67.8582768,36.8116186 69.63011,35.0792786 C70.7617254,33.9735607 72.3634781,32.3356765 74.3923649,30.2620294 C77.5006832,27.0855857 81.3685657,23.1315853 85.5055813,19.087511 C86.1511143,18.4550462 86.1665761,17.414571 85.5398874,16.7631176 Z M62.4843118,34.095769 C60.1954724,33.8815392 57.9955388,32.7889672 56.2937671,31.0215714 C52.9598021,27.5588388 50.6898069,22.6086698 54.1440845,18.9672501 L67.5727154,32.5099816 C67.4992716,32.5820407 67.4277604,32.6526392 67.358182,32.7208032 C66.2869646,33.767121 64.4653635,34.2817594 62.4843118,34.095769 Z" id="Shape"></path>
                    <path d="M36.4463624,55.0399917 C35.7652011,54.4299722 34.7229362,54.4920081 34.1180024,55.1783416 C27.4818099,62.7019149 15.4393266,75.9923631 11.3758131,79.6239237 C9.35578367,81.4293646 6.17377308,80.7011816 4.46989241,78.8873707 C2.68782967,76.9908453 2.95658056,74.5891706 5.20724714,72.2958126 C10.9218684,66.4767488 19.3401237,59.8133078 25.6899744,54.9887875 C26.4170677,54.4363728 26.5621932,53.3945639 26.0139414,52.6614574 C25.4656895,51.9283509 24.4317316,51.7826158 23.7041496,52.3350305 C17.2726964,57.2220791 8.72788385,63.9854667 2.86276207,69.9581432 C-1.40891123,74.3090245 -0.231293681,78.7180029 2.07507763,81.1718665 C3.37827515,82.5578268 5.22386083,83.5553243 7.18427645,83.8832282 C9.36555643,84.2480583 11.6890301,83.7852509 13.5644227,82.1088052 C18.2602337,77.9125212 31.7735173,62.837803 36.5836697,57.3840616 C37.1886035,56.6996976 37.1270352,55.6485341 36.4463624,55.0399917 Z" id="Shape"></path>
                </g>
            </g>
        </g>
    </g>
</svg>