<?xml version="1.0" standalone="no"?><!-- Generator: Gravit.io --><svg xmlns="http://www.w3.org/2000/svg" xmlns:xlink="http://www.w3.org/1999/xlink" style="isolation:isolate" viewBox="0 0 253 84" width="253" height="84"><defs><clipPath id="_clipPath_CP0lfqlwOCC9zKHr31jO9oEMLvW9NiIU"><rect width="253" height="84"/></clipPath></defs><g clip-path="url(#_clipPath_CP0lfqlwOCC9zKHr31jO9oEMLvW9NiIU)"><path d=" M 36.446 55.04 C 35.765 54.43 34.723 54.492 34.118 55.178 C 27.482 62.702 15.439 75.992 11.376 79.624 C 9.356 81.429 6.174 80.701 4.47 78.887 C 2.688 76.991 2.957 74.589 5.207 72.296 C 10.922 66.477 19.34 59.813 25.69 54.989 C 26.417 54.436 26.562 53.395 26.014 52.661 C 25.466 51.928 24.432 51.783 23.704 52.335 C 17.273 57.222 8.728 63.985 2.863 69.958 C -1.409 74.309 -0.231 78.718 2.075 81.172 C 3.378 82.558 5.224 83.555 7.184 83.883 C 9.366 84.248 11.689 83.785 13.564 82.109 C 18.26 77.913 31.774 62.838 36.584 57.384 C 37.189 56.7 37.127 55.649 36.446 55.04 Z  M 85.54 16.763 C 84.912 16.112 83.88 16.096 83.234 16.729 C 79.072 20.798 75.189 24.766 72.07 27.955 C 71.273 28.77 70.543 29.516 69.882 30.188 L 66.806 27.087 L 79.803 14.38 C 80.449 13.748 80.464 12.707 79.837 12.056 C 79.21 11.405 78.178 11.389 77.531 12.021 L 64.5 24.762 L 61.605 21.842 L 74.679 9.059 C 75.325 8.427 75.341 7.386 74.714 6.736 C 74.087 6.084 73.053 6.069 72.408 6.701 L 59.3 19.517 L 56.479 16.673 L 70.645 2.822 C 71.292 2.19 71.307 1.15 70.68 0.499 C 70.052 -0.153 69.02 -0.168 68.374 0.464 L 52.072 16.403 C 47.906 20.477 48.228 26.459 52.767 31.976 L 43.495 41.178 C 42.849 41.81 42.833 42.85 43.46 43.501 C 43.713 43.763 44.031 43.922 44.363 43.978 C 44.856 44.06 45.38 43.914 45.767 43.536 L 55.045 34.327 C 56.872 35.86 59.032 36.874 61.301 37.254 C 61.593 37.303 61.888 37.341 62.183 37.369 C 65.145 37.646 67.858 36.812 69.63 35.079 C 70.762 33.974 72.363 32.336 74.392 30.262 C 77.501 27.086 81.369 23.132 85.506 19.088 C 86.151 18.455 86.167 17.415 85.54 16.763 Z  M 62.484 34.096 C 60.195 33.882 57.996 32.789 56.294 31.022 C 52.96 27.559 50.69 22.609 54.144 18.967 L 67.573 32.51 C 67.499 32.582 67.428 32.653 67.358 32.721 C 66.287 33.767 64.465 34.282 62.484 34.096 Z  M 6.662 0.395 C 5.937 1.108 5.503 2.149 7.021 8.386 C 7.93 12.122 15.028 32.954 17.446 38.938 C 22.368 51.114 25.518 50.713 27.323 50.945 C 28.204 51.058 29.061 50.851 29.802 50.346 C 31.82 48.972 32.494 48.571 33.273 48.107 C 33.547 47.944 33.839 47.77 34.204 47.546 C 36.386 51.113 39.079 56.647 41.694 62.02 C 45.212 69.25 48.851 76.726 51.758 80.595 C 53.607 83.054 55.606 83.778 56.958 83.951 C 59.546 84.283 62.223 82.899 63.778 80.425 C 65.356 77.915 65.409 74.937 63.917 72.656 C 60.845 67.958 15.872 8.869 9.131 0.758 C 8.195 -0.369 7.08 -0.016 6.662 0.395 Z  M 61.029 78.703 C 60.145 80.111 58.709 80.909 57.372 80.738 C 56.323 80.603 55.279 79.881 54.355 78.651 C 51.634 75.031 48.066 67.697 44.613 60.604 C 41.46 54.125 38.482 48.004 36.045 44.409 C 35.774 44.008 35.354 43.767 34.908 43.71 C 34.541 43.663 34.155 43.74 33.821 43.956 C 32.731 44.658 30.073 46.24 27.972 47.67 C 27.876 47.736 27.82 47.742 27.737 47.732 C 26.623 48.307 26.553 47.463 24.674 44.918 C 21.648 40.82 13.103 16.743 10.632 8.835 C 9.673 5.768 10.694 7.459 11.445 8.424 C 19.565 18.848 58.214 69.864 61.199 74.427 C 62.146 75.874 61.732 77.585 61.029 78.703 Z  M 127.656 70.469 L 127.656 70.469 Q 126.813 70.469 126.531 70.047 L 126.531 70.047 L 126.531 70.047 Q 126.25 69.625 126.25 68.688 L 126.25 68.688 L 126.25 62.844 L 126.25 62.844 Q 126.25 58.844 126.031 52.313 L 126.031 52.313 L 126.031 52.313 Q 125.781 44.875 125.781 41.813 L 125.781 41.813 L 125.844 38.219 L 125.906 34.625 L 125.906 34.625 Q 125.906 33.531 125.813 31.563 L 125.813 31.563 L 125.656 28.938 L 125.656 28.938 Q 125.563 29.031 125.531 29.375 L 125.531 29.375 L 125.531 29.375 Q 124.781 34.188 123.297 42.203 L 123.297 42.203 L 123.297 42.203 Q 121.813 50.219 121.063 53.906 L 121.063 53.906 L 121.063 53.906 Q 120.344 57.219 119.906 59.75 L 119.906 59.75 L 119.906 59.75 Q 119.781 60.563 119.359 61.063 L 119.359 61.063 L 119.359 61.063 Q 118.938 61.563 118.438 61.563 L 118.438 61.563 L 118.438 61.563 Q 117.969 61.563 117.594 61.031 L 117.594 61.031 L 117.594 61.031 Q 117.219 60.5 117.094 59.563 L 117.094 59.563 L 117.094 59.563 Q 116.875 57.875 115.359 50 L 115.359 50 L 115.359 50 Q 113.844 42.125 112.406 35.156 L 112.406 35.156 L 112.406 35.156 Q 110.969 28.188 110.75 27.844 L 110.75 27.844 L 110.75 27.844 Q 110.5 34 110.5 40.781 L 110.5 40.781 L 110.5 40.781 Q 110.5 44.156 110.594 50.969 L 110.594 50.969 L 110.594 50.969 Q 110.688 57.75 110.688 61.125 L 110.688 61.125 L 110.688 61.125 Q 110.688 61.906 110.844 64.156 L 110.844 64.156 L 110.844 64.156 Q 111 66.406 111 67.219 L 111 67.219 L 111 67.219 Q 111 68.375 110.5 68.875 L 110.5 68.875 L 110.5 68.875 Q 108.688 68.875 108.688 65.531 L 108.688 65.531 L 108.688 54.844 L 108.75 48.375 L 108.75 48.375 Q 108.781 45.5 108.781 41.875 L 108.781 41.875 L 108.781 41.875 Q 108.781 39.344 108.875 34.281 L 108.875 34.281 L 108.875 34.281 Q 108.969 29.219 108.969 26.688 L 108.969 26.688 L 108.969 21.094 L 108.969 21.094 Q 108.969 20.75 109.266 20.484 L 109.266 20.484 L 109.266 20.484 Q 109.563 20.219 109.906 20.219 L 109.906 20.219 L 109.906 20.219 Q 110.375 20.219 110.563 20.75 L 110.563 20.75 L 110.563 20.75 Q 111.125 22.563 113.438 31.922 L 113.438 31.922 L 113.438 31.922 Q 115.75 41.281 116.906 46.594 L 116.906 46.594 L 116.906 46.594 Q 117.406 48.969 118.781 57.25 L 118.781 57.25 L 119.781 51.531 L 119.781 51.531 Q 120.125 49.438 120.75 45.906 L 120.75 45.906 L 120.75 45.906 Q 121.031 44.625 123.5 31.25 L 123.5 31.25 L 123.688 30.219 L 124.313 26.906 L 124.969 23.313 L 125.156 22.281 L 125.281 21.406 L 125.281 21.406 Q 125.406 20.75 125.703 20.406 L 125.703 20.406 L 125.703 20.406 Q 126 20.063 126.375 20.063 L 126.375 20.063 L 126.375 20.063 Q 126.75 20.063 127 20.391 L 127 20.391 L 127 20.391 Q 127.25 20.719 127.25 21.25 L 127.25 21.25 L 127.25 27.594 L 127.25 27.594 Q 127.25 32.156 127.781 42.094 L 127.781 42.094 L 127.781 42.094 Q 128.281 51.469 128.281 56.531 L 128.281 56.531 L 128.281 56.531 Q 128.281 57.906 128.438 61.813 L 128.438 61.813 L 128.438 61.813 Q 128.594 65.719 128.594 68.25 L 128.594 68.25 L 128.594 68.25 Q 128.594 69.656 128.375 70.063 L 128.375 70.063 L 128.375 70.063 Q 128.156 70.469 127.656 70.469 L 127.656 70.469 Z  M 150.5 69.563 L 150.5 69.563 Q 149.813 69.563 149.531 69.484 L 149.531 69.484 L 149.531 69.484 Q 149.25 69.406 149.125 69.125 L 149.125 69.125 L 149.125 69.125 Q 149 68.844 148.906 68.156 L 148.906 68.156 L 147.844 59.781 L 147.844 59.781 Q 146.688 59.469 144.688 59.469 L 144.688 59.469 L 144.688 59.469 Q 143.969 59.469 142.344 59.313 L 142.344 59.313 L 142.344 59.313 Q 140.719 59.156 140.125 59.156 L 140.125 59.156 L 140.125 59.156 Q 139.906 59.156 139.813 59.219 L 139.813 59.219 L 139.813 59.219 Q 139.719 59.281 139.688 59.438 L 139.688 59.438 L 139.688 59.438 Q 139.656 59.5 139.656 59.563 L 139.656 59.563 L 139.656 59.563 Q 139.656 59.625 139.625 59.656 L 139.625 59.656 L 139.5 60.938 L 139.5 60.938 Q 139.344 62.563 138.781 65.531 L 138.781 65.531 L 138.781 65.531 Q 138.438 67.156 138.031 68.219 L 138.031 68.219 L 138.031 68.219 Q 137.563 69.313 137.063 69.313 L 137.063 69.313 L 137.063 69.313 Q 136.656 69.313 136.219 68.953 L 136.219 68.953 L 136.219 68.953 Q 135.781 68.594 135.781 68.219 L 135.781 68.219 L 135.844 68.031 L 135.906 67.844 L 135.906 67.844 Q 136.969 63.75 137.844 58.813 L 137.844 58.813 L 138.563 54.844 L 138.563 54.844 Q 138.781 53.688 139 52.25 L 139 52.25 L 139.375 50 L 140.063 45.781 L 140.063 45.781 Q 140.344 44 141.188 40.188 L 141.188 40.188 L 141.188 40.188 Q 142 36.281 142.313 34.25 L 142.313 34.25 L 142.563 31.906 L 142.688 30.875 L 142.688 30.875 Q 142.844 29.156 143 28.281 L 143 28.281 L 143 28.281 Q 143.25 26.656 143.406 26.375 L 143.406 26.375 L 143.844 26.406 L 143.844 26.406 Q 144.031 26.438 144.281 26.438 L 144.281 26.438 L 144.281 26.438 Q 145.063 26.438 145.438 26.063 L 145.438 26.063 L 145.438 26.063 Q 145.875 26.063 146.234 26.344 L 146.234 26.344 L 146.234 26.344 Q 146.594 26.625 146.594 27.031 L 146.594 27.031 L 146.594 27.031 Q 146.594 28.844 146.703 30.359 L 146.703 30.359 L 146.703 30.359 Q 146.813 31.875 147.063 34.063 L 147.063 34.063 L 147.438 37.438 L 147.438 37.438 Q 148.219 46.469 151 68.438 L 151 68.438 L 151 68.625 L 151 68.625 Q 151 69.281 150.5 69.563 L 150.5 69.563 Z  M 146.906 58.063 L 147.563 58.063 L 147.563 58.063 Q 147.094 51.344 145.125 30.844 L 145.125 30.844 L 145.125 30.844 Q 141.813 47.313 141.656 47.938 L 141.656 47.938 L 141.656 47.938 Q 140.188 55.219 140.188 57.25 L 140.188 57.25 L 140.188 57.25 Q 140.188 57.563 142.656 57.813 L 142.656 57.813 L 142.656 57.813 Q 145.125 58.063 146.906 58.063 L 146.906 58.063 Z  M 171.938 70.156 L 171.938 70.156 Q 170.438 70.156 168.344 64.406 L 168.344 64.406 L 168.344 64.406 Q 167 60.781 165.859 56.641 L 165.859 56.641 L 165.859 56.641 Q 164.719 52.5 164.016 49.094 L 164.016 49.094 L 164.016 49.094 Q 163.313 45.688 163.25 44.156 L 163.25 44.156 L 163.094 43.906 L 162.094 45.969 L 162.094 45.969 Q 161.219 47.75 160.953 48.406 L 160.953 48.406 L 160.953 48.406 Q 160.688 49.063 160.375 50.281 L 160.375 50.281 L 160.375 50.281 Q 160.031 51.656 160.031 52.813 L 160.031 52.813 L 160.031 52.813 Q 160.031 53.375 159.875 55.094 L 159.875 55.094 L 159.875 55.094 Q 159.719 56.813 159.719 57.406 L 159.719 57.406 L 159.719 65.594 L 159.719 65.594 Q 159.719 66.313 159.938 67.438 L 159.938 67.438 L 159.938 67.438 Q 160.156 68.563 160.156 69.25 L 160.156 69.25 L 160.156 69.25 Q 160.156 69.594 159.844 69.813 L 159.844 69.813 L 159.844 69.813 Q 159.531 70.031 159.125 70.031 L 159.125 70.031 L 159.125 70.031 Q 158.281 70.031 158 69.766 L 158 69.766 L 158 69.766 Q 157.719 69.5 157.719 68.688 L 157.719 68.688 L 157.719 56.656 L 157.719 56.656 Q 157.719 55.156 158.031 52.625 L 158.031 52.625 L 158.031 52.625 Q 158.313 49.938 158.313 48.594 L 158.313 48.594 L 158.313 48.594 Q 158.313 46.375 158.625 42.406 L 158.625 42.406 L 158.625 42.406 Q 158.938 38.469 158.938 36.219 L 158.938 36.219 L 158.938 27.344 L 158.938 27.344 Q 159.313 26.625 160.156 26.625 L 160.156 26.625 L 160.156 26.625 Q 160.625 26.625 161 27 L 161 27 L 161 27 Q 161.375 27.375 161.375 27.844 L 161.375 27.844 L 161.375 27.844 Q 160.813 28.875 160.813 30.906 L 160.813 30.906 L 160.813 30.906 Q 160.813 33.625 160.688 37.656 L 160.688 37.656 L 160.688 37.656 Q 160.563 41.688 160.563 44.438 L 160.563 44.438 L 160.563 44.438 Q 161.188 44.188 165.563 35.594 L 165.563 35.594 L 165.563 35.594 Q 169.906 27.031 170.344 27.031 L 170.344 27.031 L 170.344 27.031 Q 171.969 27.031 172.063 28.094 L 172.063 28.094 L 172.063 28.094 Q 168.125 33.875 165.219 39.938 L 165.219 39.938 L 165.156 42 L 165.094 44.031 L 165.094 44.031 Q 165.094 45.875 166.141 50.25 L 166.141 50.25 L 166.141 50.25 Q 167.188 54.625 168.609 59.031 L 168.609 59.031 L 168.609 59.031 Q 170.031 63.438 171.031 65.344 L 171.031 65.344 L 171.031 65.344 Q 171.313 65.844 171.813 66.469 L 171.813 66.469 L 171.813 66.469 Q 172.438 67.313 172.734 67.953 L 172.734 67.953 L 172.734 67.953 Q 173.031 68.594 173.031 69.188 L 173.031 69.188 L 173.031 69.188 Q 173.031 69.625 172.719 69.891 L 172.719 69.891 L 172.719 69.891 Q 172.406 70.156 171.938 70.156 L 171.938 70.156 Z  M 185 69.375 L 185 69.375 Q 184.375 69.375 184.031 68.906 L 184.031 68.906 L 184.031 68.906 Q 183.688 68.438 183.688 67.75 L 183.688 67.75 L 183.688 67.75 Q 183.719 66.594 183.719 62.031 L 183.719 62.031 L 183.719 56.313 L 183.719 56.313 Q 183.719 53.688 183.563 46.094 L 183.563 46.094 L 183.563 46.094 Q 183.406 38.531 183.406 35.844 L 183.406 35.844 L 183.438 34 L 183.438 34 Q 183.469 32.969 183.469 29.844 L 183.469 29.844 L 183.469 29.844 Q 183.469 22.938 183.313 22.938 L 183.313 22.938 L 176.094 22.938 L 176.094 22.938 Q 175.563 22.938 175.156 22.688 L 175.156 22.688 L 175.156 22.688 Q 174.75 22.438 174.75 21.969 L 174.75 21.969 L 174.75 21.969 Q 174.75 21.469 174.953 21.281 L 174.953 21.281 L 174.953 21.281 Q 175.156 21.094 175.969 20.906 L 175.969 20.906 L 175.969 20.906 Q 176.906 20.75 178.531 20.75 L 178.531 20.75 L 184.938 20.719 L 191.969 20.688 L 191.969 20.688 Q 192.75 20.688 193.031 20.953 L 193.031 20.953 L 193.031 20.953 Q 193.313 21.219 193.313 21.781 L 193.313 21.781 L 193.313 21.781 Q 193.313 22.719 192.094 22.719 L 192.094 22.719 L 189.25 22.719 L 186.375 22.75 L 185.813 22.813 L 185.844 22.813 L 185.875 26.531 L 185.875 31.5 L 185.875 57.5 L 185.906 62.781 L 185.938 67.5 L 185.938 67.688 L 185.938 67.688 Q 185.938 68.313 185.891 68.578 L 185.891 68.578 L 185.891 68.578 Q 185.844 68.844 185.656 69.094 L 185.656 69.094 L 185.656 69.094 Q 185.438 69.375 185 69.375 L 185 69.375 Z  M 210.188 70.094 L 209.25 69.781 L 209.25 69.781 Q 208.5 68.938 207.609 65.359 L 207.609 65.359 L 207.609 65.359 Q 206.719 61.781 205.969 57.281 L 205.969 57.281 L 205.969 57.281 Q 205.344 53.5 204.5 50.063 L 204.5 50.063 L 204.5 50.063 Q 203.719 46.844 203.031 46.844 L 203.031 46.844 L 202.781 46.844 L 202.781 46.844 Q 201.375 46.844 201.375 47.75 L 201.375 47.75 L 201.375 47.75 Q 201.375 51.219 201.938 61.781 L 201.938 61.781 L 201.938 61.781 Q 202.156 67.438 202.469 68.5 L 202.469 68.5 L 202 69.563 L 201.063 69.563 L 200.594 69.063 L 200.594 69.063 Q 199.563 41.375 199.563 28.75 L 199.563 28.75 L 199.563 28.75 Q 199.563 27.969 199.641 27.563 L 199.641 27.563 L 199.641 27.563 Q 199.719 27.156 200.031 26.75 L 200.031 26.75 L 200.031 26.75 Q 200.375 26.313 200.969 26.313 L 200.969 26.313 L 200.969 26.313 Q 204.188 26.313 206.172 27.938 L 206.172 27.938 L 206.172 27.938 Q 208.156 29.563 208.156 32.531 L 208.156 32.531 L 208.156 37.188 L 208.156 37.188 Q 208.156 38.375 207.391 40.375 L 207.391 40.375 L 207.391 40.375 Q 206.625 42.375 205.656 44.219 L 205.656 44.219 L 205.656 44.219 Q 204.813 45.75 204.813 45.844 L 204.813 45.844 L 204.813 45.844 Q 204.813 46.063 207.25 56.063 L 207.25 56.063 L 207.25 56.063 Q 209.688 66.063 209.875 66.563 L 209.875 66.563 L 209.875 66.563 Q 209.875 66.594 209.969 66.797 L 209.969 66.797 L 209.969 66.797 Q 210.063 67 210.406 67.656 L 210.406 67.656 L 210.406 67.656 Q 210.906 68.625 210.906 69.188 L 210.906 69.188 L 210.906 69.188 Q 210.906 70.094 210.188 70.094 L 210.188 70.094 Z  M 201.75 45.25 L 201.75 45.25 Q 202.938 45.25 203.922 44.016 L 203.922 44.016 L 203.922 44.016 Q 204.906 42.781 205.406 40.906 L 205.406 40.906 L 205.406 40.906 Q 205.906 39.125 206.172 37.469 L 206.172 37.469 L 206.172 37.469 Q 206.438 35.813 206.438 34.688 L 206.438 34.688 L 206.438 34.688 Q 206.438 33.219 206.297 32.25 L 206.297 32.25 L 206.297 32.25 Q 206.156 31.281 205.781 30.219 L 205.781 30.219 L 205.781 30.219 Q 205.375 29.125 204.453 28.547 L 204.453 28.547 L 204.453 28.547 Q 203.531 27.969 202.125 27.969 L 202.125 27.969 L 202.125 27.969 Q 201.781 27.969 201.578 28.516 L 201.578 28.516 L 201.578 28.516 Q 201.375 29.063 201.375 29.625 L 201.375 29.625 L 201.375 29.625 Q 201.375 32.781 201.5 37.375 L 201.5 37.375 L 201.5 37.375 Q 201.625 41.969 201.625 45.125 L 201.625 45.125 L 201.75 45.25 Z  M 230.625 69.563 L 230.625 69.563 Q 229.938 69.563 229.656 69.484 L 229.656 69.484 L 229.656 69.484 Q 229.375 69.406 229.25 69.125 L 229.25 69.125 L 229.25 69.125 Q 229.125 68.844 229.031 68.156 L 229.031 68.156 L 227.969 59.781 L 227.969 59.781 Q 226.813 59.469 224.813 59.469 L 224.813 59.469 L 224.813 59.469 Q 224.094 59.469 222.469 59.313 L 222.469 59.313 L 222.469 59.313 Q 220.844 59.156 220.25 59.156 L 220.25 59.156 L 220.25 59.156 Q 220.031 59.156 219.938 59.219 L 219.938 59.219 L 219.938 59.219 Q 219.844 59.281 219.813 59.438 L 219.813 59.438 L 219.813 59.438 Q 219.781 59.5 219.781 59.563 L 219.781 59.563 L 219.781 59.563 Q 219.781 59.625 219.75 59.656 L 219.75 59.656 L 219.625 60.938 L 219.625 60.938 Q 219.469 62.563 218.906 65.531 L 218.906 65.531 L 218.906 65.531 Q 218.563 67.156 218.156 68.219 L 218.156 68.219 L 218.156 68.219 Q 217.688 69.313 217.188 69.313 L 217.188 69.313 L 217.188 69.313 Q 216.781 69.313 216.344 68.953 L 216.344 68.953 L 216.344 68.953 Q 215.906 68.594 215.906 68.219 L 215.906 68.219 L 215.969 68.031 L 216.031 67.844 L 216.031 67.844 Q 217.094 63.75 217.969 58.813 L 217.969 58.813 L 218.688 54.844 L 218.688 54.844 Q 218.906 53.688 219.125 52.25 L 219.125 52.25 L 219.5 50 L 220.188 45.781 L 220.188 45.781 Q 220.469 44 221.313 40.188 L 221.313 40.188 L 221.313 40.188 Q 222.125 36.281 222.438 34.25 L 222.438 34.25 L 222.688 31.906 L 222.813 30.875 L 222.813 30.875 Q 222.969 29.156 223.125 28.281 L 223.125 28.281 L 223.125 28.281 Q 223.375 26.656 223.531 26.375 L 223.531 26.375 L 223.969 26.406 L 223.969 26.406 Q 224.156 26.438 224.406 26.438 L 224.406 26.438 L 224.406 26.438 Q 225.188 26.438 225.563 26.063 L 225.563 26.063 L 225.563 26.063 Q 226 26.063 226.359 26.344 L 226.359 26.344 L 226.359 26.344 Q 226.719 26.625 226.719 27.031 L 226.719 27.031 L 226.719 27.031 Q 226.719 28.844 226.828 30.359 L 226.828 30.359 L 226.828 30.359 Q 226.938 31.875 227.188 34.063 L 227.188 34.063 L 227.563 37.438 L 227.563 37.438 Q 228.344 46.469 231.125 68.438 L 231.125 68.438 L 231.125 68.625 L 231.125 68.625 Q 231.125 69.281 230.625 69.563 L 230.625 69.563 Z  M 227.031 58.063 L 227.688 58.063 L 227.688 58.063 Q 227.219 51.344 225.25 30.844 L 225.25 30.844 L 225.25 30.844 Q 221.938 47.313 221.781 47.938 L 221.781 47.938 L 221.781 47.938 Q 220.313 55.219 220.313 57.25 L 220.313 57.25 L 220.313 57.25 Q 220.313 57.563 222.781 57.813 L 222.781 57.813 L 222.781 57.813 Q 225.25 58.063 227.031 58.063 L 227.031 58.063 Z  M 252.063 70.156 L 252.063 70.156 Q 250.563 70.156 248.469 64.406 L 248.469 64.406 L 248.469 64.406 Q 247.125 60.781 245.984 56.641 L 245.984 56.641 L 245.984 56.641 Q 244.844 52.5 244.141 49.094 L 244.141 49.094 L 244.141 49.094 Q 243.438 45.688 243.375 44.156 L 243.375 44.156 L 243.219 43.906 L 242.219 45.969 L 242.219 45.969 Q 241.344 47.75 241.078 48.406 L 241.078 48.406 L 241.078 48.406 Q 240.813 49.063 240.5 50.281 L 240.5 50.281 L 240.5 50.281 Q 240.156 51.656 240.156 52.813 L 240.156 52.813 L 240.156 52.813 Q 240.156 53.375 240 55.094 L 240 55.094 L 240 55.094 Q 239.844 56.813 239.844 57.406 L 239.844 57.406 L 239.844 65.594 L 239.844 65.594 Q 239.844 66.313 240.063 67.438 L 240.063 67.438 L 240.063 67.438 Q 240.281 68.563 240.281 69.25 L 240.281 69.25 L 240.281 69.25 Q 240.281 69.594 239.969 69.813 L 239.969 69.813 L 239.969 69.813 Q 239.656 70.031 239.25 70.031 L 239.25 70.031 L 239.25 70.031 Q 238.406 70.031 238.125 69.766 L 238.125 69.766 L 238.125 69.766 Q 237.844 69.5 237.844 68.688 L 237.844 68.688 L 237.844 56.656 L 237.844 56.656 Q 237.844 55.156 238.156 52.625 L 238.156 52.625 L 238.156 52.625 Q 238.438 49.938 238.438 48.594 L 238.438 48.594 L 238.438 48.594 Q 238.438 46.375 238.75 42.406 L 238.75 42.406 L 238.75 42.406 Q 239.063 38.469 239.063 36.219 L 239.063 36.219 L 239.063 27.344 L 239.063 27.344 Q 239.438 26.625 240.281 26.625 L 240.281 26.625 L 240.281 26.625 Q 240.75 26.625 241.125 27 L 241.125 27 L 241.125 27 Q 241.5 27.375 241.5 27.844 L 241.5 27.844 L 241.5 27.844 Q 240.938 28.875 240.938 30.906 L 240.938 30.906 L 240.938 30.906 Q 240.938 33.625 240.813 37.656 L 240.813 37.656 L 240.813 37.656 Q 240.688 41.688 240.688 44.438 L 240.688 44.438 L 240.688 44.438 Q 241.313 44.188 245.688 35.594 L 245.688 35.594 L 245.688 35.594 Q 250.031 27.031 250.469 27.031 L 250.469 27.031 L 250.469 27.031 Q 252.094 27.031 252.188 28.094 L 252.188 28.094 L 252.188 28.094 Q 248.25 33.875 245.344 39.938 L 245.344 39.938 L 245.281 42 L 245.219 44.031 L 245.219 44.031 Q 245.219 45.875 246.266 50.25 L 246.266 50.25 L 246.266 50.25 Q 247.313 54.625 248.734 59.031 L 248.734 59.031 L 248.734 59.031 Q 250.156 63.438 251.156 65.344 L 251.156 65.344 L 251.156 65.344 Q 251.438 65.844 251.938 66.469 L 251.938 66.469 L 251.938 66.469 Q 252.563 67.313 252.859 67.953 L 252.859 67.953 L 252.859 67.953 Q 253.156 68.594 253.156 69.188 L 253.156 69.188 L 253.156 69.188 Q 253.156 69.625 252.844 69.891 L 252.844 69.891 L 252.844 69.891 Q 252.531 70.156 252.063 70.156 L 252.063 70.156 Z " fill-rule="evenodd" fill="rgb(0,0,0)"/></g></svg>